<?xml version="1.0" standalone="no"?><!DOCTYPE svg PUBLIC "-//W3C//DTD SVG 1.1//EN" "http://www.w3.org/Graphics/SVG/1.1/DTD/svg11.dtd"><svg t="1606400184101" class="icon" viewBox="0 0 1024 1024" version="1.1" xmlns="http://www.w3.org/2000/svg" p-id="2303" xmlns:xlink="http://www.w3.org/1999/xlink" width="200" height="200"><defs><style type="text/css"></style></defs><path d="M935.424 282.325333a42.538667 42.538667 0 0 0-9.258667-13.824l-128-128a42.666667 42.666667 0 1 0-60.330666 60.330667L793.002667 256h-141.696a213.333333 213.333333 0 0 0-182.954667 103.594667l-156.586667 260.906666A128 128 0 0 1 202.069333 682.666667H128a42.666667 42.666667 0 1 0 0 85.333333h74.026667a213.333333 213.333333 0 0 0 182.954666-103.594667l156.586667-260.906666A128 128 0 0 1 651.264 341.333333h141.653333l-55.125333 55.168a42.666667 42.666667 0 0 0 60.330667 60.330667l128-128A42.538667 42.538667 0 0 0 938.666667 298.666667M935.424 282.325333a42.496 42.496 0 0 1 3.242667 16.213334l-3.242667-16.213334z" fill="#0D0D0D" p-id="2304"></path><path d="M926.122667 755.541333l-127.957334 128a42.666667 42.666667 0 0 1-60.330666-60.373333L793.002667 768h-141.696a213.333333 213.333333 0 0 1-182.954667-103.594667l-156.586667-260.906666A128 128 0 0 0 202.069333 341.333333H128a42.666667 42.666667 0 0 1 0-85.333333h74.026667a213.333333 213.333333 0 0 1 182.954666 103.594667l156.586667 260.906666A128 128 0 0 0 651.264 682.666667h141.653333l-55.125333-55.168a42.666667 42.666667 0 0 1 60.330667-60.330667l128 128c8.32 8.277333 12.458667 19.2 12.501333 30.037333V725.333333a42.538667 42.538667 0 0 1-12.544 30.208z" fill="#0D0D0D" p-id="2305"></path></svg>