<?xml version="1.0" standalone="no"?><!DOCTYPE svg PUBLIC "-//W3C//DTD SVG 1.1//EN" "http://www.w3.org/Graphics/SVG/1.1/DTD/svg11.dtd"><svg t="1608017629685" class="icon" viewBox="0 0 1024 1024" version="1.1" xmlns="http://www.w3.org/2000/svg" p-id="2857" xmlns:xlink="http://www.w3.org/1999/xlink" width="200" height="200"><defs><style type="text/css"></style></defs><path d="M554.666667 213.333333a42.666667 42.666667 0 1 0-85.333334 0v42.666667a42.666667 42.666667 0 1 0 85.333334 0V213.333333z" fill="#0D0D0D" p-id="2858"></path><path d="M385.194667 810.666667H128a42.666667 42.666667 0 1 1 0-85.333334h162.261333a256 256 0 1 1 443.477334 0H896a42.666667 42.666667 0 1 1 0 85.333334H385.194667zM512 426.666667a170.666667 170.666667 0 0 0-112.896 298.666666h225.792A170.666667 170.666667 0 0 0 512 426.666667z" fill="#0D0D0D" p-id="2859"></path><path d="M813.696 355.968l-30.165333 30.165333a42.666667 42.666667 0 1 1-60.330667-60.330666l30.165333-30.165334a42.666667 42.666667 0 1 1 60.330667 60.330667zM170.666667 640a42.666667 42.666667 0 1 0 0-85.333333H128a42.666667 42.666667 0 1 0 0 85.333333h42.666667zM938.666667 597.333333a42.666667 42.666667 0 0 1-42.666667 42.666667h-42.666667a42.666667 42.666667 0 1 1 0-85.333333h42.666667a42.666667 42.666667 0 0 1 42.666667 42.666666zM240.469333 386.133333A42.666667 42.666667 0 0 0 300.8 325.802667l-30.165333-30.165334A42.666667 42.666667 0 1 0 210.346667 355.968l30.165333 30.165333z" fill="#0D0D0D" p-id="2860"></path></svg>