<?xml version="1.0" standalone="no"?><!DOCTYPE svg PUBLIC "-//W3C//DTD SVG 1.1//EN" "http://www.w3.org/Graphics/SVG/1.1/DTD/svg11.dtd"><svg t="1606400236293" class="icon" viewBox="0 0 1024 1024" version="1.1" xmlns="http://www.w3.org/2000/svg" p-id="2434" xmlns:xlink="http://www.w3.org/1999/xlink" width="200" height="200"><defs><style type="text/css"></style></defs><path d="M170.666667 298.666667a42.666667 42.666667 0 0 1 42.666666-42.666667h597.333334a42.666667 42.666667 0 1 1 0 85.333333H213.333333a42.666667 42.666667 0 0 1-42.666666-42.666666z m85.333333 213.333333a42.666667 42.666667 0 0 1 42.666667-42.666667h426.666666a42.666667 42.666667 0 1 1 0 85.333334H298.666667a42.666667 42.666667 0 0 1-42.666667-42.666667z m85.333333 213.333333a42.666667 42.666667 0 0 1 42.666667-42.666666h256a42.666667 42.666667 0 1 1 0 85.333333H384a42.666667 42.666667 0 0 1-42.666667-42.666667z" fill="#0D0D0D" p-id="2435"></path></svg>